<svg version="1.1" xmlns="http://www.w3.org/2000/svg" xmlns:xlink="http://www.w3.org/1999/xlink">
 <defs>
	<symbol id="icon-back-button" viewBox="0 0 18 32">
		<path d="M4.423 16l12.297 12.297-2.459 2.459-13.527-13.527c-0.326-0.326-0.509-0.768-0.509-1.23s0.183-0.903 0.509-1.229l13.527-13.527 2.459 2.459-12.297 12.297z"></path>
	</symbol>
	<symbol id="icon-burger-menu" viewBox="0 0 44 32">
		<path d="M4 1.5c-1.381 0-2.5 1.119-2.5 2.5v0c0 1.381 1.119 2.5 2.5 2.5v0h36c1.381 0 2.5-1.119 2.5-2.5v0c0-1.381-1.119-2.5-2.5-2.5v0zM4 13.5c-1.381 0-2.5 1.119-2.5 2.5v0c0 1.381 1.119 2.5 2.5 2.5v0h36c1.381 0 2.5-1.119 2.5-2.5v0c0-1.381-1.119-2.5-2.5-2.5v0zM4 25.5c-1.381 0-2.5 1.119-2.5 2.5v0c0 1.381 1.119 2.5 2.5 2.5v0h36c1.381 0 2.5-1.119 2.5-2.5v0c0-1.381-1.119-2.5-2.5-2.5v0z"></path>
	</symbol>
	<symbol id="icon-close-button" viewBox="0 0 32 32">
		<path d="M4.571 1.714c-0.001 0-0.003 0-0.004 0-0.788 0-1.501 0.319-2.018 0.835l0-0c-0.518 0.517-0.839 1.232-0.839 2.022s0.321 1.505 0.839 2.022l9.406 9.406-9.406 9.406c-0.518 0.517-0.839 1.232-0.839 2.022s0.321 1.505 0.839 2.022l0 0c0.517 0.518 1.232 0.839 2.022 0.839s1.505-0.321 2.022-0.839l9.406-9.406 9.406 9.406c0.517 0.518 1.232 0.839 2.022 0.839s1.505-0.321 2.022-0.839l0-0c0.518-0.517 0.839-1.232 0.839-2.022s-0.321-1.505-0.839-2.022l-9.406-9.406 9.406-9.406c0.518-0.517 0.839-1.232 0.839-2.022s-0.321-1.505-0.839-2.022l-0-0c-0.517-0.518-1.232-0.839-2.022-0.839s-1.505 0.321-2.022 0.839l-9.406 9.406-9.406-9.406c-0.517-0.516-1.23-0.835-2.018-0.835-0.001 0-0.003 0-0.004 0h0z"></path>
	</symbol>
	<symbol id="icon-nav-button" viewBox="0 0 32 32">
		<path d="M22.667 16c-0.002 0.34-0.079 0.676-0.227 0.983s-0.362 0.577-0.627 0.79l-6.8 5.613c-0.409 0.328-0.903 0.534-1.424 0.596s-1.049-0.025-1.523-0.249c-0.412-0.182-0.763-0.478-1.012-0.854s-0.383-0.815-0.388-1.266v-11.227c0.005-0.45 0.14-0.89 0.388-1.266s0.6-0.672 1.012-0.854c0.474-0.224 1.002-0.31 1.523-0.249s1.014 0.268 1.424 0.596l6.8 5.613c0.265 0.214 0.479 0.484 0.627 0.79s0.225 0.642 0.227 0.983z"></path>
	</symbol>
	<symbol id="icon-star" viewBox="0 0 34 32">
		<path d="M20.265 2.002c-1.122-2.668-4.946-2.668-6.069 0l-2.878 6.838-7.47 0.592c-2.913 0.23-4.094 3.825-1.874 5.706l5.691 4.82-1.739 7.207c-0.678 2.811 2.416 5.033 4.91 3.527l6.395-3.861 6.395 3.863c2.494 1.506 5.588-0.715 4.91-3.528l-1.74-7.204 5.691-4.821c2.22-1.881 1.039-5.475-1.874-5.706l-7.47-0.591-2.878-6.841z"></path>
	</symbol>
	<symbol id="icon-gplay" viewBox="0 0 30 33">
		<path d="M14.0102 15.7324L0.124268 30.2087C0.280205 30.7586 0.560429 31.2657 0.943519 31.6913C1.32661 32.1169 1.80242 32.4497 2.33459 32.6643C2.86675 32.8789 3.44118 32.9696 4.01395 32.9294C4.58673 32.8892 5.14269 32.7193 5.63935 32.4325L21.2636 23.578L14.0102 15.7324Z" fill="#EA4335"/>
		<path d="M28.0511 13.2718L21.2947 9.4209L13.6895 16.0617L21.3256 23.5573L28.0306 19.7477C28.6246 19.4382 29.1221 18.9728 29.4693 18.4021C29.8164 17.8313 29.9999 17.1768 29.9999 16.5097C29.9999 15.8425 29.8164 15.188 29.4693 14.6173C29.1221 14.0465 28.6246 13.5811 28.0306 13.2716L28.0511 13.2718Z" fill="#FBBC04"/>
		<path d="M0.124255 2.73877C0.0403714 3.04754 -0.00140914 3.36613 3.62537e-05 3.68597V29.2612C0.000864544 29.5809 0.0426065 29.8993 0.124255 30.2085L14.4862 16.103L0.124255 2.73877Z" fill="#4285F4"/>
		<path d="M14.1136 16.4737L21.2947 9.42087L5.69114 0.525092C5.10407 0.182989 4.43636 0.00181041 3.75603 7.15159e-06C2.06771 -0.00325787 0.583408 1.11175 0.124268 2.72851L14.1136 16.4737Z" fill="#34A853"/>
	</symbol>
	<symbol id="icon-play" viewBox="0 0 26 30">
		<path d="M26 15L0.5 29.7224L0.5 0.277568L26 15Z"></path>
	</symbol>
 </defs>
</svg>