<svg version="1.1" xmlns="http://www.w3.org/2000/svg" xmlns:xlink="http://www.w3.org/1999/xlink">
 <defs>
	<symbol id="icon-back-button" viewBox="0 0 18 32">
		<path d="M4.423 16l12.297 12.297-2.459 2.459-13.527-13.527c-0.326-0.326-0.509-0.768-0.509-1.23s0.183-0.903 0.509-1.229l13.527-13.527 2.459 2.459-12.297 12.297z"></path>
	</symbol>
	<symbol id="icon-burger-menu" viewBox="0 0 44 32">
		<path d="M4 1.5c-1.381 0-2.5 1.119-2.5 2.5v0c0 1.381 1.119 2.5 2.5 2.5v0h36c1.381 0 2.5-1.119 2.5-2.5v0c0-1.381-1.119-2.5-2.5-2.5v0zM4 13.5c-1.381 0-2.5 1.119-2.5 2.5v0c0 1.381 1.119 2.5 2.5 2.5v0h36c1.381 0 2.5-1.119 2.5-2.5v0c0-1.381-1.119-2.5-2.5-2.5v0zM4 25.5c-1.381 0-2.5 1.119-2.5 2.5v0c0 1.381 1.119 2.5 2.5 2.5v0h36c1.381 0 2.5-1.119 2.5-2.5v0c0-1.381-1.119-2.5-2.5-2.5v0z"></path>
	</symbol>
	<symbol id="icon-close-button" viewBox="0 0 32 32">
		<path d="M4.571 1.714c-0.001 0-0.003 0-0.004 0-0.788 0-1.501 0.319-2.018 0.835l0-0c-0.518 0.517-0.839 1.232-0.839 2.022s0.321 1.505 0.839 2.022l9.406 9.406-9.406 9.406c-0.518 0.517-0.839 1.232-0.839 2.022s0.321 1.505 0.839 2.022l0 0c0.517 0.518 1.232 0.839 2.022 0.839s1.505-0.321 2.022-0.839l9.406-9.406 9.406 9.406c0.517 0.518 1.232 0.839 2.022 0.839s1.505-0.321 2.022-0.839l0-0c0.518-0.517 0.839-1.232 0.839-2.022s-0.321-1.505-0.839-2.022l-9.406-9.406 9.406-9.406c0.518-0.517 0.839-1.232 0.839-2.022s-0.321-1.505-0.839-2.022l-0-0c-0.517-0.518-1.232-0.839-2.022-0.839s-1.505 0.321-2.022 0.839l-9.406 9.406-9.406-9.406c-0.517-0.516-1.23-0.835-2.018-0.835-0.001 0-0.003 0-0.004 0h0z"></path>
	</symbol>
	<symbol id="icon-nav-button" viewBox="0 0 32 32">
		<path d="M22.667 16c-0.002 0.34-0.079 0.676-0.227 0.983s-0.362 0.577-0.627 0.79l-6.8 5.613c-0.409 0.328-0.903 0.534-1.424 0.596s-1.049-0.025-1.523-0.249c-0.412-0.182-0.763-0.478-1.012-0.854s-0.383-0.815-0.388-1.266v-11.227c0.005-0.45 0.14-0.89 0.388-1.266s0.6-0.672 1.012-0.854c0.474-0.224 1.002-0.31 1.523-0.249s1.014 0.268 1.424 0.596l6.8 5.613c0.265 0.214 0.479 0.484 0.627 0.79s0.225 0.642 0.227 0.983z"></path>
	</symbol>
	<symbol id="icon-star" viewBox="0 0 34 32">
		<path d="M20.265 2.002c-1.122-2.668-4.946-2.668-6.069 0l-2.878 6.838-7.47 0.592c-2.913 0.23-4.094 3.825-1.874 5.706l5.691 4.82-1.739 7.207c-0.678 2.811 2.416 5.033 4.91 3.527l6.395-3.861 6.395 3.863c2.494 1.506 5.588-0.715 4.91-3.528l-1.74-7.204 5.691-4.821c2.22-1.881 1.039-5.475-1.874-5.706l-7.47-0.591-2.878-6.841z"></path>
	</symbol>
 </defs>
</svg>